<?xml version="1.0" encoding="UTF-8"?>
<svg version="1.1" xmlns="http://www.w3.org/2000/svg" width="512" height="512">
<path d="M0 0 C5.38677452 0.14991024 8.52997756 3.64200272 12.3125 7.0625 C12.9818457 7.65812744 13.65119141 8.25375488 14.34082031 8.86743164 C16.23849062 10.56633137 18.12163688 12.27980922 20 14 C21.17369141 15.06347656 21.17369141 15.06347656 22.37109375 16.1484375 C36.75167259 29.84137951 46.95743629 47.51371785 56 65 C59.43175814 62.07503073 62.85332981 59.14187659 66.21875 56.140625 C74.34123951 48.9466311 82.74183945 42.65851565 92 37 C92.68545898 36.57976562 93.37091797 36.15953125 94.07714844 35.7265625 C109.71252968 26.28093173 126.4845929 20.02864017 144 15 C155.45101304 34.8126621 164.02945039 54.62771034 169 77 C169.16371094 77.6904541 169.32742188 78.3809082 169.49609375 79.09228516 C175.60671049 105.62422953 173.84896528 137.08427231 166 163 C166.65669678 163.03440186 167.31339355 163.06880371 167.98999023 163.10424805 C200.26971059 164.90766248 229.44088907 171.59733343 258 187 C257.43633198 192.82020002 256.27501128 197.97862576 254.375 203.5 C254.10848633 204.28044678 253.84197266 205.06089355 253.56738281 205.86499023 C238.50203898 249.0881791 206.95208212 286.12704595 166 307 C147.80633072 315.70166544 128.97843392 322.04888171 109 325 C108.3702124 325.0935376 107.7404248 325.1870752 107.09155273 325.28344727 C74.23557242 329.576402 40.35911654 324.46719062 10.3828125 310.515625 C9.26648438 310.01546875 8.15015625 309.5153125 7 309 C6.02160156 308.53078125 5.04320312 308.0615625 4.03515625 307.578125 C-0.28390305 306.75544704 -2.99539135 308.48667338 -6.6875 310.5 C-29.02491672 321.78226361 -53.89065121 326.22952506 -78.75 326.25 C-79.85314545 326.25101212 -79.85314545 326.25101212 -80.97857666 326.25204468 C-92.87129968 326.23474323 -104.36451909 325.59850697 -116 323 C-116.7950293 322.82307617 -117.59005859 322.64615234 -118.40917969 322.46386719 C-164.76617342 311.80010105 -205.61288931 283.9317987 -231.42773438 243.77929688 C-241.14551586 228.2016799 -254.41945287 205.93587712 -254 187 C-224.12063606 171.72077981 -195.34693822 164.95062342 -162 163 C-162.39832031 161.40285156 -162.39832031 161.40285156 -162.8046875 159.7734375 C-163.16180503 158.30737607 -163.51855559 156.84122523 -163.875 155.375 C-164.13603516 154.33472656 -164.13603516 154.33472656 -164.40234375 153.2734375 C-167.52031353 140.33963695 -168.37745279 127.61442736 -168.3125 114.375 C-168.30926727 113.18679153 -168.30926727 113.18679153 -168.30596924 111.97457886 C-168.15133884 76.50477769 -157.25955801 45.72580656 -140 15 C-125.10142752 19.68278222 -110.64717436 24.34231279 -97 32 C-95.78323028 32.65490745 -94.56577712 33.30854663 -93.34765625 33.9609375 C-81.09646482 40.62404 -70.5956158 49.18048777 -60.12890625 58.30078125 C-57.47611836 60.60808224 -54.76334204 62.82548224 -52 65 C-51.47792969 63.9584375 -50.95585937 62.916875 -50.41796875 61.84375 C-38.71074096 38.88050769 -23.38564527 18.95437578 -3.22265625 2.78515625 C-1.15219979 1.18837217 -1.15219979 1.18837217 0 0 Z " fill="#FE3980" transform="translate(254,93)"/>
<path d="M0 0 C5.38677452 0.14991024 8.52997756 3.64200272 12.3125 7.0625 C12.9818457 7.65812744 13.65119141 8.25375488 14.34082031 8.86743164 C16.23849062 10.56633137 18.12163688 12.27980922 20 14 C20.78246094 14.70898438 21.56492187 15.41796875 22.37109375 16.1484375 C56.71780224 48.85278779 75.94037122 103.1441274 77.3828125 149.58984375 C78.57153551 199.86652015 62.37594645 246.71390445 27.4609375 283.4296875 C26.24277344 284.70199219 26.24277344 284.70199219 25 286 C24.35289062 286.74507813 23.70578125 287.49015625 23.0390625 288.2578125 C20.16621232 291.46864505 18.63540167 292.83567198 14.375 293.9375 C12.91747205 293.99024863 11.4584636 294.0073536 10 294 C9.09894531 294.04769531 8.19789063 294.09539062 7.26953125 294.14453125 C-38.25119305 295.70227467 -82.10995999 272.47468324 -114.70703125 242.51171875 C-121.55433423 235.92321147 -127.31753443 228.58731788 -133 221 C-133.63808594 220.15695312 -134.27617187 219.31390625 -134.93359375 218.4453125 C-143.77093677 206.322029 -150.41051154 192.87328254 -156 179 C-156.30180176 178.26410645 -156.60360352 177.52821289 -156.91455078 176.77001953 C-163.73572382 159.97587031 -168.08574392 142.25558211 -168.203125 124.046875 C-168.21018463 123.31314163 -168.21724426 122.57940826 -168.22451782 121.82344055 C-168.51825867 82.30538355 -159.39179316 49.52165376 -140 15 C-125.10142752 19.68278222 -110.64717436 24.34231279 -97 32 C-95.78323028 32.65490745 -94.56577712 33.30854663 -93.34765625 33.9609375 C-81.09646482 40.62404 -70.5956158 49.18048777 -60.12890625 58.30078125 C-57.47611836 60.60808224 -54.76334204 62.82548224 -52 65 C-51.47792969 63.9584375 -50.95585937 62.916875 -50.41796875 61.84375 C-38.71074096 38.88050769 -23.38564527 18.95437578 -3.22265625 2.78515625 C-1.15219979 1.18837217 -1.15219979 1.18837217 0 0 Z " fill="#FF7BB8" transform="translate(254,93)"/>
<path d="M0 0 C0.81791016 0.00451172 1.63582031 0.00902344 2.47851562 0.01367188 C4.46487647 0.02528802 6.4511988 0.04321552 8.4375 0.0625 C9.14741564 1.74933495 9.85528729 3.43703005 10.5625 5.125 C11.25472656 6.77628906 11.25472656 6.77628906 11.9609375 8.4609375 C12.93207427 10.82968909 13.87570475 13.20993788 14.7890625 15.6015625 C23.4020481 38.07231264 36.24540961 57.32328262 52.4375 75.0625 C53.18386719 75.88105469 53.93023437 76.69960938 54.69921875 77.54296875 C85.72931154 109.94962757 128.15629099 124.09890961 171.4375 130.0625 C171.4375 134.0225 171.4375 137.9825 171.4375 142.0625 C153.41867341 151.8747323 134.67599805 157.8043471 114.4375 161.0625 C113.25285156 161.25585938 112.06820312 161.44921875 110.84765625 161.6484375 C104.16815981 162.4301774 97.40436079 162.30696778 90.6875 162.3125 C89.58435455 162.31351212 89.58435455 162.31351212 88.45892334 162.31454468 C76.56620032 162.29724323 65.07298091 161.66100697 53.4375 159.0625 C52.6424707 158.88557617 51.84744141 158.70865234 51.02832031 158.52636719 C4.67132658 147.86260105 -36.17538931 119.9942987 -61.99023438 79.84179688 C-71.70801586 64.2641799 -84.98195287 41.99837712 -84.5625 23.0625 C-58.20664553 9.58507442 -29.92523108 -0.32018766 0 0 Z " fill="#FF3980" transform="translate(84.5625,256.9375)"/>
<path d="M0 0 C32.94889253 -1.08622723 64.01995812 7.61059845 93 23 C92.43633198 28.82020002 91.27501128 33.97862576 89.375 39.5 C89.10848633 40.28044678 88.84197266 41.06089355 88.56738281 41.86499023 C73.50203898 85.0881791 41.95208212 122.12704595 1 143 C-17.19366928 151.70166544 -36.02156608 158.04888171 -56 161 C-56.6297876 161.0935376 -57.2595752 161.1870752 -57.90844727 161.28344727 C-91.95242227 165.73162511 -127.22516752 160.11296767 -158 145 C-158.88631104 144.59934326 -159.77262207 144.19868652 -160.68579102 143.78588867 C-163 142 -163 142 -163.48828125 139.08203125 C-163.43027344 138.00308594 -163.37226563 136.92414063 -163.3125 135.8125 C-163.26738281 134.72582031 -163.22226563 133.63914062 -163.17578125 132.51953125 C-163.11777344 131.68808594 -163.05976563 130.85664063 -163 130 C-161.93809448 129.86537354 -161.93809448 129.86537354 -160.85473633 129.72802734 C-145.11742282 127.68666352 -130.07302879 125.00078965 -115 120 C-113.95658447 119.66427979 -113.95658447 119.66427979 -112.89208984 119.32177734 C-95.25624866 113.57198641 -78.51135469 104.53420944 -64 93 C-63.46503906 92.57783203 -62.93007813 92.15566406 -62.37890625 91.72070312 C-31.54862952 67.13780861 -13.64402518 36.49076529 0 0 Z " fill="#E30A6C" transform="translate(419,257)"/>
<path d="M0 0 C2.95625107 1.47812553 4.77495989 2.48359898 7.171875 4.5390625 C7.7496167 5.0326123 8.3273584 5.52616211 8.92260742 6.03466797 C9.52564697 6.55947754 10.12868652 7.08428711 10.75 7.625 C11.37688721 8.16914551 12.00377441 8.71329102 12.6496582 9.27392578 C49.54038629 41.51689025 70.96486707 92.73553619 75 141 C78.02183913 191.10793962 64.54591639 239.26190984 31.0390625 277.421875 C29.20595124 279.46716919 27.33509519 281.44871123 25.4296875 283.4296875 C23.0296695 285.86787357 23.0296695 285.86787357 21.3203125 288.2578125 C19.8125 290.1875 19.8125 290.1875 16 293 C10.72 293.33 5.44 293.66 0 294 C0 196.98 0 99.96 0 0 Z " fill="#FE7BB8" transform="translate(256,93)"/>
<path d="M0 0 C0 97.02 0 194.04 0 294 C-15.7185668 292.69011943 -20.37491958 289.72394965 -30.22265625 278.45703125 C-64.3380587 237.72312039 -78.09756241 190.06686215 -74.7578125 137.2890625 C-74.35933132 133.47502837 -73.76494179 129.75341504 -73 126 C-72.81695312 125.07654785 -72.63390625 124.1530957 -72.4453125 123.20166016 C-63.17280623 77.49020754 -43.83531185 35.7518438 -8 5 C-7.06607422 4.17628906 -7.06607422 4.17628906 -6.11328125 3.3359375 C-2.26483939 0 -2.26483939 0 0 0 Z " fill="#FFA1C2" transform="translate(256,93)"/>
<path d="M0 0 C0 3 0 3 -1.16162109 4.53393555 C-1.69352051 5.062854 -2.22541992 5.59177246 -2.7734375 6.13671875 C-3.3509375 6.71357422 -3.9284375 7.29042969 -4.5234375 7.88476562 C-5.13445312 8.47966797 -5.74546875 9.07457031 -6.375 9.6875 C-7.27992188 10.59725586 -7.27992188 10.59725586 -8.203125 11.52539062 C-12.73310075 16 -12.73310075 16 -15 16 C-13.69113024 13.07299167 -12.33773912 11.12815685 -9.9609375 8.984375 C-9.38085938 8.45585937 -8.80078125 7.92734375 -8.203125 7.3828125 C-7.59984375 6.84398437 -6.9965625 6.30515625 -6.375 5.75 C-5.76398438 5.19570312 -5.15296875 4.64140625 -4.5234375 4.0703125 C-3.02043435 2.7082159 -1.5108532 1.35338399 0 0 Z " fill="#FF488E" transform="translate(325,145)"/>
</svg>
